<svg id="Layer_1" data-name="Layer 1" xmlns="http://www.w3.org/2000/svg" xmlns:xlink="http://www.w3.org/1999/xlink" viewBox="0 0 215.49 42.27">
  <defs>
    <style>
      .cls-1 {
        fill: url(#linear-gradient);
      }
    </style>
    <linearGradient id="linear-gradient" x1="24.29" y1="69.58" x2="194.74" y2="-28.83" gradientUnits="userSpaceOnUse">
      <stop offset="0" stop-color="#890005"></stop>
      <stop offset=".11" stop-color="#9a0c11"></stop>
      <stop offset=".28" stop-color="#b01b20"></stop>
      <stop offset=".44" stop-color="#bc2429"></stop>
      <stop offset=".6" stop-color="#c1272d"></stop>
      <stop offset=".69" stop-color="#d2213b"></stop>
      <stop offset=".89" stop-color="#f21656"></stop>
      <stop offset="1" stop-color="#ff1361"></stop>
    </linearGradient>
  </defs>
  <path class="cls-1" d="M8.69,32.95c-1.67,0-3.16-.29-4.47-.88s-2.34-1.45-3.09-2.61c-.76-1.15-1.13-2.59-1.13-4.32,0-1.46.27-2.68.8-3.67.53-.99,1.26-1.78,2.18-2.39.92-.6,1.97-1.06,3.14-1.36,1.18-.31,2.41-.52,3.71-.65,1.52-.16,2.75-.31,3.68-.45.93-.14,1.61-.35,2.03-.64.42-.28.63-.7.63-1.26v-.1c0-1.08-.34-1.91-1.01-2.51-.68-.59-1.63-.89-2.87-.89-1.31,0-2.35.29-3.12.86-.77.57-1.28,1.29-1.53,2.16l-6.72-.55c.34-1.59,1.01-2.97,2.01-4.13,1-1.17,2.29-2.06,3.88-2.69,1.59-.63,3.42-.95,5.51-.95,1.45,0,2.85.17,4.18.51s2.52.87,3.56,1.58,1.86,1.63,2.46,2.75c.6,1.12.9,2.46.9,4.01v17.66h-6.89v-3.63h-.21c-.42.82-.98,1.54-1.69,2.16-.7.62-1.55,1.1-2.54,1.45-.99.35-2.13.52-3.43.52ZM10.77,27.94c1.07,0,2.01-.21,2.83-.64.82-.43,1.46-1,1.93-1.73s.7-1.55.7-2.47v-2.78c-.23.15-.54.28-.93.4-.39.12-.83.23-1.32.32-.49.1-.98.18-1.47.26-.49.07-.93.14-1.33.2-.85.13-1.6.32-2.23.6-.64.27-1.13.64-1.48,1.1-.35.46-.53,1.03-.53,1.71,0,.99.36,1.74,1.08,2.26.72.52,1.64.78,2.75.78Z"></path>
  <path class="cls-1" d="M36.34,17.32v15.14h-7.26V6.27h6.92v4.62h.31c.58-1.52,1.55-2.73,2.92-3.62s3.02-1.34,4.96-1.34c1.82,0,3.4.4,4.76,1.19s2.4,1.93,3.15,3.4c.75,1.47,1.12,3.22,1.12,5.26v16.67h-7.26v-15.38c.01-1.6-.4-2.85-1.23-3.76-.83-.9-1.97-1.36-3.43-1.36-.98,0-1.84.21-2.58.63s-1.32,1.03-1.74,1.83c-.42.8-.63,1.76-.64,2.89Z"></path>
  <path class="cls-1" d="M62.45,42.27c-.92,0-1.78-.07-2.58-.21-.8-.14-1.46-.32-1.99-.54l1.64-5.42c.85.26,1.62.4,2.31.43s1.28-.14,1.79-.48c.5-.34.92-.92,1.24-1.74l.43-1.11-9.39-26.93h7.64l5.42,19.23h.27l5.47-19.23h7.69l-10.18,29.01c-.49,1.41-1.15,2.64-1.99,3.69-.84,1.05-1.89,1.86-3.16,2.44-1.27.57-2.81.86-4.6.86Z"></path>
  <path class="cls-1" d="M102.53,42.27v-14.01h-.22c-.34.73-.82,1.45-1.44,2.16-.62.71-1.42,1.3-2.4,1.76-.98.47-2.18.7-3.59.7-1.99,0-3.79-.51-5.39-1.54-1.61-1.03-2.88-2.54-3.82-4.55s-1.41-4.47-1.41-7.39.48-5.5,1.45-7.49,2.25-3.49,3.86-4.48c1.61-.99,3.37-1.49,5.29-1.49,1.47,0,2.69.25,3.67.74.98.49,1.78,1.11,2.39,1.84.61.73,1.07,1.45,1.39,2.16h.31v-4.4h7.16v36h-7.25ZM97.18,27.1c1.17,0,2.16-.32,2.97-.96.81-.64,1.44-1.54,1.88-2.7s.66-2.52.66-4.07-.22-2.91-.65-4.06c-.43-1.15-1.06-2.03-1.88-2.66s-1.81-.94-2.98-.94-2.2.32-3.02.97c-.82.65-1.44,1.55-1.86,2.69-.42,1.15-.63,2.48-.63,3.99s.21,2.87.64,4.03c.43,1.17,1.05,2.07,1.86,2.73s1.82.98,3.01.98Z"></path>
  <path class="cls-1" d="M132.38,21.31V6.27h7.26v26.18h-6.97v-4.76h-.27c-.59,1.53-1.57,2.77-2.94,3.7s-3.04,1.4-5,1.4c-1.75,0-3.29-.4-4.62-1.19-1.33-.8-2.37-1.93-3.11-3.39-.75-1.47-1.12-3.22-1.13-5.27V6.27h7.26v15.38c.01,1.55.43,2.77,1.24,3.66.82.9,1.91,1.35,3.29,1.35.87,0,1.69-.2,2.45-.6.76-.4,1.38-1,1.85-1.8s.7-1.78.69-2.95Z"></path>
  <path class="cls-1" d="M157.36,32.97c-2.69,0-5.01-.55-6.95-1.64s-3.43-2.65-4.47-4.67c-1.05-2.02-1.57-4.41-1.57-7.17s.52-5.06,1.57-7.09,2.52-3.62,4.42-4.76c1.9-1.14,4.14-1.7,6.71-1.7,1.73,0,3.34.28,4.83.83s2.8,1.38,3.92,2.48,1.99,2.49,2.62,4.15c.62,1.67.94,3.61.94,5.84v1.99h-22.11v-4.5h15.27c0-1.05-.23-1.97-.68-2.78-.46-.81-1.08-1.44-1.88-1.9-.8-.46-1.73-.69-2.79-.69s-2.08.25-2.92.76c-.85.51-1.51,1.18-1.99,2.03-.48.85-.72,1.79-.73,2.82v4.28c0,1.3.24,2.41.72,3.36.48.94,1.17,1.67,2.05,2.18.89.51,1.94.77,3.15.77.81,0,1.54-.11,2.22-.34.67-.23,1.24-.57,1.72-1.02.48-.45.84-1.01,1.09-1.67l6.72.44c-.34,1.61-1.04,3.02-2.09,4.22-1.05,1.2-2.4,2.13-4.06,2.79-1.65.67-3.56,1-5.72,1Z"></path>
  <path class="cls-1" d="M195.9,13.74l-6.65.41c-.11-.57-.36-1.08-.73-1.54-.38-.46-.87-.83-1.47-1.11-.61-.28-1.33-.42-2.17-.42-1.12,0-2.07.24-2.85.71-.77.47-1.16,1.1-1.16,1.88,0,.62.25,1.15.75,1.59.5.43,1.36.78,2.57,1.04l4.74.95c2.54.52,4.44,1.36,5.69,2.52,1.25,1.16,1.88,2.68,1.88,4.57,0,1.72-.5,3.22-1.51,4.52-1.01,1.3-2.38,2.3-4.12,3.03-1.75.72-3.75,1.08-6.03,1.08-3.47,0-6.22-.72-8.28-2.17-2.05-1.45-3.25-3.42-3.6-5.92l7.14-.38c.22,1.06.74,1.86,1.57,2.41.83.55,1.89.83,3.19.83s2.3-.25,3.08-.74c.78-.5,1.17-1.13,1.19-1.92-.01-.66-.29-1.2-.84-1.63-.54-.43-1.39-.75-2.52-.98l-4.53-.9c-2.56-.51-4.46-1.4-5.7-2.66-1.25-1.26-1.87-2.87-1.87-4.82,0-1.68.46-3.13,1.37-4.35.92-1.22,2.21-2.15,3.87-2.81,1.66-.66,3.62-.99,5.85-.99,3.31,0,5.91.7,7.82,2.1,1.9,1.4,3.01,3.3,3.33,5.71Z"></path>
  <path class="cls-1" d="M215.01,6.27v5.45h-15.77v-5.45h15.77ZM202.82,0h7.26v24.41c0,.67.1,1.19.31,1.56.2.37.49.63.86.78.37.15.8.22,1.29.22.34,0,.68-.03,1.02-.09.34-.06.6-.11.78-.14l1.14,5.4c-.36.11-.88.25-1.53.4-.66.15-1.46.25-2.4.28-1.75.07-3.28-.17-4.59-.7-1.31-.53-2.33-1.36-3.06-2.49-.73-1.12-1.09-2.54-1.07-4.26V0Z"></path>
</svg>